PathFileType	4	(X/Y/Z)	RBDS016\RBDS016runT25.trc
DataRate	CameraRate	NumFrames	NumMarkers	Units	OrigDataRate	OrigDataStartFrame	OrigNumFrames
150.000000	150.000000	6	33	mm	150.000000	562	4500
Frame#	Time	L.ASIS			L.Heel.Bottom			L.Heel.Lateral			L.Heel.Top			L.Iliac.Crest			L.MT1			L.MT5			L.PSIS			L.Shank.Bottom.Lateral			L.Shank.Bottom.Medial			L.Shank.Top.Lateral			L.Shank.Top.Medial			L.Thigh.Bottom.Lateral			L.Thigh.Bottom.Medial			L.Thigh.Top.Lateral			L.Thigh.Top.Medial			R.ASIS			R.ASY			R.Heel.Bottom			R.Heel.Lateral			R.Heel.Top			R.Iliac.Crest			R.MT1			R.MT5			R.PSIS			R.Shank.Bottom.Lateral			R.Shank.Bottom.Medial			R.Shank.Top.Lateral			R.Shank.Top.Medial			R.Thigh.Bottom.Lateral			R.Thigh.Bottom.Medial			R.Thigh.Top.Lateral			R.Thigh.Top.Medial			
		X1	Y1	Z1	X2	Y2	Z2	X3	Y3	Z3	X4	Y4	Z4	X5	Y5	Z5	X6	Y6	Z6	X7	Y7	Z7	X8	Y8	Z8	X9	Y9	Z9	X10	Y10	Z10	X11	Y11	Z11	X12	Y12	Z12	X13	Y13	Z13	X14	Y14	Z14	X15	Y15	Z15	X16	Y16	Z16	X17	Y17	Z17	X18	Y18	Z18	X19	Y19	Z19	X20	Y20	Z20	X21	Y21	Z21	X22	Y22	Z22	X23	Y23	Z23	X24	Y24	Z24	X25	Y25	Z25	X26	Y26	Z26	X27	Y27	Z27	X28	Y28	Z28	X29	Y29	Z29	X30	Y30	Z30	X31	Y31	Z31	X32	Y32	Z32	X33	Y33	Z33	

563	3.746666666666667	2445.005087041312	930.5248649839166	962.3443977394671	1889.970520642506	193.8444849418946	1040.965290062293	1913.161490139836	186.1804639987162	993.8659815908201	1927.809526084331	220.4166947904569	1029.886392175388	2395.677304641087	1011.152283096421	913.0191641176035	2064.232810471062	58.6146334044796	1053.038800427617	2010.60526466059	69.01656780527222	958.7710886573515	2264.375395997155	998.6303636769096	1028.931097731401	2005.067697487517	268.0413155017368	966.8477364856244	1993.183547886662	283.6174075823458	1018.891387279446	2041.106007485372	339.2669589113657	955.1459987393092	2031.014968759499	354.3452451406459	1005.968800156439	2234.088790392545	601.437644596445	915.3826797995697	2182.105796420251	626.1460587097795	960.3871545721953	2267.486908456755	704.5362090482839	897.7019385568187	2217.552574015745	727.9897064929385	941.7263626936403	2439.647613625682	959.9387256088668	1186.501608940291	2606.837839770008	125.927449549262	1169.703565583427	2442.420179430341	45.04888423615314	1109.49902915467	2454.499628072499	65.85495900744839	1158.158623940905	2442.705605226823	96.74768346372348	1116.539018209145	2374.335668291517	1037.410374351741	1230.449312229836	2648.658138146009	105.6461036724507	1132.795564667829	2598.592367256411	70.96651660177533	1225.356273543191	2265.123259786934	998.8353437072615	1128.434683067247	2477.188571586071	189.4070073655495	1194.073329533433	2444.9972041004	195.7790687300464	1154.385465320027	2465.879193982842	271.4914421441043	1213.333172434762	2432.726118759763	273.9158920053704	1171.72436435254	2450.079958818339	603.220719805032	1243.262988259923	2394.522407745225	582.8037782785688	1201.593945996126	2402.528329839343	700.8967637960669	1259.153221850744	2349.336933610828	681.4868460883777	1221.234000938739	
564	3.753333333333333	2446.559339828525	931.9859626568159	963.5408837429065	1883.626892517831	204.8801470459388	1039.519455213689	1906.097699258484	195.9421597074095	992.3087269034837	1922.590514902578	229.7500466515555	1027.972017856507	2398.008904148322	1013.37153083396	914.0768683550327	2052.246184661537	62.47073608390814	1051.639816172367	1998.466351450058	73.73775148745243	957.6789541754824	2265.761716430154	1001.021557700702	1028.815703404441	1999.704820438936	273.9766582305129	965.0281090824215	1988.285909732976	289.5205226840192	1017.204794774382	2037.389713665256	344.389478358408	953.7055594852607	2027.577466056046	359.488296075047	1004.584126290595	2234.064402328731	603.2632256819851	915.2355569178354	2182.442027816323	627.9193473781372	960.6844185095074	2267.815992435354	706.327542356448	897.9881427404272	2218.236741969263	729.7435074368232	942.5061606000459	2439.972672855588	960.7514323643118	1187.336684743522	2621.480062239884	130.6035091383662	1167.376737894943	2461.073825061863	41.22452612176613	1107.994344262231	2472.532318169808	61.95370808355403	1156.817502092744	2458.400411537103	92.81511533132748	1115.802829097823	2374.722775993209	1038.641599672341	1230.82908180281	2663.965126166479	113.5177656022025	1129.680619251363	2617.073777941083	74.38744418749329	1222.502363336348	2266.187571148129	1000.865360231551	1128.334918378454	2488.723592615444	187.7675214469811	1193.051145861152	2456.231799577045	192.9281902049901	1153.435572699458	2473.873110400059	269.2268768443375	1212.60105136709	2440.556473854017	270.4181985962165	1171.0412996395	2445.996479721375	601.8389926821266	1243.542701842518	2390.665314512205	582.6169905286583	1201.04102444906	2399.450743013365	700.1236738557783	1259.585328233058	2346.709416002842	681.8705743909422	1220.680553118196	
565	3.76	2448.005550311575	933.2191785621965	964.6394609395372	1877.711067279263	215.7620560874963	1038.069645837375	1899.431345975433	205.6748447006063	990.7459153819444	1917.676693477256	238.9776697284627	1026.113114029536	2399.857420770254	1015.277468773159	915.0810274451038	2040.665868431896	66.81417568252371	1050.197206315842	1986.808809373734	78.93420822991669	956.5321114924251	2266.937643438829	1002.900157763865	1028.78681817366	1994.865216610655	279.8115961810163	963.3077911452619	1983.859912389361	295.4124460921896	1015.571102477346	2034.374194231824	349.2479552616428	952.3337801712034	2024.817399679155	364.4474589133314	1003.222074165918	2234.993340293923	604.0857277558349	915.1506299232452	2183.573931736398	628.5701995792857	960.92367127804	2268.788109956462	707.2003638973723	898.3109840074649	2219.409958511663	730.464451181334	943.1852388933714	2440.281894194362	961.0028708426786	1188.13020162858	2634.031558037913	135.1496277732841	1165.081245752951	2477.624777479932	38.23426034565568	1106.088764028748	2488.453161069507	58.85947146374282	1155.1133891694	2472.266878217429	89.609379397211	1114.65166164732	2374.920645517242	1039.200269582738	1231.253667624621	2677.015341708234	120.9939084176477	1126.743231008382	2633.034869154357	77.93516788883194	1219.644382546526	2267.109761500666	1002.315523351218	1128.317680162083	2498.795515988064	186.5569461389609	1191.772338595945	2466.108178738532	190.6591761524935	1152.197794290385	2480.88467073366	267.340482413442	1211.61521734635	2447.480447658485	267.4665632821401	1170.08040394249	2442.303079746864	600.1779060042837	1243.794041674968	2387.343413618379	582.1220586936922	1200.296447764579	2396.510452937355	698.9467652723209	1260.029836860366	2344.367076986015	681.8073339542624	1219.976103736423	
566	3.766666666666667	2449.326687014311	934.1811790856323	965.6424622295231	1872.212441899234	226.4736885689551	1036.590666837926	1893.199051326424	215.3636981505916	989.16274528524	1913.063730021317	248.0968827420018	1024.306645161302	2401.209263414609	1016.834484438159	916.0165122354865	2029.543292455249	71.5861005810029	1048.725289528129	1975.727266637079	84.59875797856891	955.3154854041975	2267.904485299076	1004.195396055188	1028.829601420014	1990.580038035456	285.5676559172322	961.6904585510782	1979.940411950889	301.3127432021631	1013.995583658518	2032.065558416534	353.8605422898355	951.0313739891691	2022.753742637653	369.2352026758903	1001.889906739605	2236.908571875706	603.8333766897199	915.126132302734	2185.523224283679	628.0436446799413	961.081532813682	2270.443071780759	707.0734921865376	898.6450325946681	2221.08848920193	730.0886373627648	943.7039671613235	2440.577198764939	960.7335443799491	1188.876685885547	2644.386734561649	139.2344567390074	1162.819500630095	2491.749899231568	35.86482418682296	1103.836541923065	2501.961520238045	56.3834574677178	1153.083286224698	2484.05495431272	86.96953754397393	1113.097147672835	2374.928651519811	1039.108588020565	1231.708934424025	2687.732466610073	127.6483829398221	1123.986547328694	2646.278372710332	81.25105262521384	1216.811172114026	2267.876211983662	1003.133721985243	1128.372734632456	2507.261638545774	185.5811802989446	1190.251812646939	2474.460772226777	188.7974845318331	1150.69396860618	2486.810269148634	265.6986119163556	1210.389603626506	2453.372921977641	264.9424116572008	1168.861229831349	2439.141684198782	598.3196988565643	1243.954149421067	2384.641062307211	581.3320830817909	1199.403499447595	2393.847656865398	697.440573533049	1260.417126179853	2342.380761556819	681.3119306000683	1219.154488966745	
567	3.773333333333333	2450.510689601981	934.826395078837	966.5546302469022	1867.146327450145	237.0045176637324	1035.054340045036	1887.461166877104	224.9991390737223	987.5419348818509	1908.778017101449	257.1068425629599	1022.546183542369	2402.068825666245	1018.007719019812	916.8675660176146	2018.939624292854	76.72184601415925	1047.234751104969	1965.325580056001	90.71491393205324	954.0095100642883	2268.674705758395	1004.834296779856	1028.926161513282	1986.89509944105	291.2632218156168	960.1738907691927	1976.582576758678	307.2302200048492	1012.481402142989	2030.478323826722	358.2472609873811	949.7970690372065	2021.415630067144	373.8596286543375	1000.596413733564	2239.818928473724	602.4661422463187	915.1604792733558	2188.297353893833	626.3150342062607	961.1455192994478	2272.799327825896	705.894686850871	898.9634716634657	2223.27910048814	728.5793809292422	944.0138829063519	2440.86227143255	959.9917739843814	1189.576429350374	2652.494823279741	142.5323553187277	1160.577823888065	2503.168950335603	33.91178899054891	1101.334752698833	2512.817942099094	54.33983643228797	1150.801813951061	2493.558513170934	84.7408530094652	1111.194747487061	2374.746770968507	1038.395657154179	1232.179425629919	2696.084250919043	133.0701370290152	1121.376135945257	2656.688597796284	83.97457610214424	1214.018098248366	2268.478467590888	1003.268846228473	1128.484418952303	2514.019324375061	184.6371614289825	1188.527602941766	2481.15817228225	187.1542149040551	1148.97480644675	2491.573289648351	264.1529827783123	1208.959150719193	2458.129887538381	262.7065243860948	1167.429547671474	2436.619934589832	596.3284970871794	1243.962865340238	2382.598941369321	580.2485555818706	1198.415233983302	2391.586734688258	695.6733447449894	1260.67630767796	2340.798818031875	680.397726094772	1218.256750734825	
568	3.78	2451.551300796329	935.1082549356923	967.3814080347498	1862.556670829222	247.3486419679566	1033.436114204775	1882.298298883367	234.5746514416222	985.8681030630725	1904.877849810875	266.0061751048762	1020.824341392364	2402.459042898133	1018.762578213148	917.6198862876761	2008.924948001113	82.15435974645825	1045.728180076391	1955.709292775393	97.25493417593133	952.5915585611282	2269.270599445608	1004.746051141631	1029.057054049958	1983.867059627316	296.9103692486069	958.7511515169789	1973.85734866273	313.159622757946	1011.030646014842	2029.634411949227	362.426334901951	948.6292846423866	2020.839605108839	378.3211351514958	999.3525368804588	2243.70348533837	599.980451819017	915.2525008017001	2191.884103070854	623.3934662989989	961.1153228971815	2275.848766017683	703.6465276985813	899.2415440709608	2225.975764360052	725.9315419374436	944.0837878093863	2441.141889276177	958.8289020320955	1190.234074375188	2658.357708094255	144.747688832805	1158.329857913958	2511.660683676804	32.20092035005597	1098.708200739557	2520.854942883521	52.5668988179433	1148.368355458239	2500.627762047738	82.79174008308365	1109.031444422354	2374.376013602713	1037.094306125176	1232.649731867644	2702.079817507813	136.890397951205	1118.85015645555	2664.228359333667	85.77592610653781	1211.269484676653	2268.913826191727	1002.673322239756	1128.633353757639	2519.011139866574	183.5307059799462	1186.653790670014	2486.110429622836	185.5438076123046	1147.112063879735	2495.128240307944	262.5545979238442	1207.374986082959	2461.674744009416	260.6132081565572	1165.85178016899	2434.805332326646	594.2439227562709	1243.77184051446	2381.218101900447	578.8629378345316	1197.38730763145	2389.82577112016	693.698784413593	1260.747558394448	2339.647597169731	679.0750559650555	1217.327897552402	
